<svg width="242" height="67" viewBox="0 0 242 67" fill="none" xmlns="http://www.w3.org/2000/svg">
<g id="idp_logo 3" clip-path="url(#clip0_21_2)">
<g id="Layer 2">
<g id="Layer 1">
<path id="Vector" d="M83.3346 11.4359V26.1875H80.2336V11.4359H83.3346Z" fill="white"/>
<path id="Vector_2" d="M88.873 19.7881V26.1734H85.8279V15.1238H88.7333V17.0767H88.8591C89.0938 16.4441 89.5279 15.9063 90.0952 15.5453C90.7213 15.149 91.4512 14.9507 92.1905 14.9763C92.8873 14.9598 93.5755 15.1347 94.181 15.4821C94.7545 15.8204 95.216 16.3213 95.5079 16.9221C95.8392 17.6111 96.002 18.3698 95.9829 19.1348V26.1594H92.8889V19.6687C92.9284 19.0942 92.7429 18.527 92.3721 18.0882C92.1934 17.8978 91.9764 17.7479 91.7355 17.6485C91.4946 17.5492 91.2354 17.5027 90.9752 17.5122C90.5953 17.5053 90.22 17.5973 89.8857 17.7791C89.5839 17.9638 89.3414 18.232 89.1873 18.5518C88.986 18.9328 88.8782 19.3567 88.873 19.7881Z" fill="white"/>
<path id="Vector_3" d="M104.203 15.1238V17.4279H97.5822V15.1238H104.203ZM99.0838 12.4756H102.136V22.7806C102.124 23.0077 102.167 23.2343 102.262 23.4409C102.34 23.5888 102.469 23.7034 102.625 23.764C102.796 23.8297 102.979 23.8607 103.163 23.8553C103.308 23.8576 103.453 23.8459 103.596 23.8202L103.924 23.757L104.399 26.04C104.245 26.0891 104.036 26.1453 103.756 26.2086C103.425 26.2792 103.089 26.3192 102.75 26.328C102.094 26.3694 101.437 26.2688 100.823 26.0329C100.294 25.8288 99.8433 25.4595 99.5378 24.9793C99.2114 24.4388 99.0533 23.8125 99.0838 23.181V12.4756Z" fill="white"/>
<path id="Vector_4" d="M111.048 26.3912C110.032 26.4176 109.028 26.1754 108.135 25.6887C107.327 25.237 106.673 24.5518 106.257 23.7218C105.784 22.7842 105.544 21.7454 105.558 20.6943C105.547 19.6547 105.787 18.6279 106.257 17.7018C106.667 16.866 107.31 16.168 108.107 15.6928C108.959 15.2099 109.924 14.9672 110.901 14.9903C111.594 14.9857 112.282 15.1046 112.933 15.3416C113.55 15.5687 114.112 15.9255 114.582 16.3882C115.069 16.8869 115.443 17.4861 115.678 18.1444C115.952 18.9342 116.084 19.7666 116.069 20.6029V21.4459H106.857V19.5493H113.262C113.272 19.1395 113.173 18.7344 112.975 18.3762C112.791 18.0323 112.512 17.7493 112.172 17.5613C111.817 17.3596 111.414 17.2577 111.006 17.2663C110.574 17.256 110.148 17.368 109.777 17.5894C109.429 17.7944 109.145 18.0907 108.952 18.4464C108.747 18.8078 108.641 19.2175 108.645 19.6336V21.4389C108.634 21.9244 108.737 22.4058 108.945 22.8438C109.133 23.2326 109.436 23.5539 109.811 23.764C110.215 23.9888 110.671 24.1004 111.131 24.0871C111.447 24.0934 111.761 24.0459 112.06 23.9466C112.322 23.8544 112.56 23.7058 112.759 23.5111C112.961 23.3144 113.116 23.0742 113.213 22.8087L116.006 22.9983C115.873 23.6581 115.57 24.2711 115.126 24.7755C114.679 25.3051 114.115 25.7214 113.478 25.9908C112.701 26.281 111.876 26.4169 111.048 26.3912Z" fill="white"/>
<path id="Vector_5" d="M121.154 11.4359V26.1875H118.109V11.4359H121.154Z" fill="white"/>
<path id="Vector_6" d="M126.636 11.4359V26.1875H123.619V11.4359H126.636Z" fill="white"/>
<path id="Vector_7" d="M130.603 13.6978C130.172 13.7055 129.755 13.5413 129.444 13.2412C129.292 13.103 129.171 12.9344 129.088 12.7462C129.006 12.5581 128.963 12.3547 128.963 12.1489C128.963 11.9432 129.006 11.7397 129.088 11.5516C129.171 11.3635 129.292 11.1949 129.444 11.0566C129.597 10.9067 129.779 10.7891 129.978 10.7107C130.177 10.6323 130.389 10.5947 130.603 10.6C130.818 10.5945 131.032 10.6321 131.232 10.7105C131.432 10.7889 131.615 10.9065 131.77 11.0566C131.921 11.1949 132.042 11.3635 132.125 11.5516C132.208 11.7397 132.25 11.9432 132.25 12.1489C132.25 12.3547 132.208 12.5581 132.125 12.7462C132.042 12.9344 131.921 13.103 131.77 13.2412C131.455 13.5411 131.036 13.705 130.603 13.6978ZM129.067 26.1734V15.1238H132.119V26.1734H129.067Z" fill="white"/>
<path id="Vector_8" d="M139.501 30.5497C138.638 30.5726 137.779 30.4345 136.966 30.1423C136.325 29.9151 135.748 29.5369 135.283 29.0394C134.881 28.5972 134.602 28.0572 134.472 27.4729L137.266 27.0866C137.359 27.3213 137.499 27.5342 137.678 27.7118C137.887 27.9198 138.14 28.0782 138.418 28.1754C138.78 28.2995 139.161 28.3589 139.543 28.351C140.129 28.3756 140.707 28.2026 141.184 27.8593C141.414 27.6626 141.593 27.4129 141.706 27.1316C141.819 26.8503 141.863 26.5457 141.834 26.2437V24.2206H141.701C141.554 24.5445 141.35 24.8395 141.1 25.0916C140.81 25.3945 140.46 25.6337 140.074 25.7941C139.593 25.9796 139.08 26.0679 138.565 26.054C137.778 26.062 137.002 25.8609 136.316 25.471C135.616 25.054 135.056 24.4348 134.71 23.6937C134.279 22.7452 134.073 21.7086 134.109 20.6662C134.073 19.5868 134.281 18.5132 134.717 17.5262C135.064 16.7539 135.627 16.0998 136.337 15.6436C137.003 15.2255 137.773 15.0062 138.558 15.0114C139.092 14.9935 139.623 15.1018 140.109 15.3275C140.493 15.5164 140.835 15.7817 141.114 16.1073C141.345 16.3845 141.542 16.6888 141.701 17.0134H141.82V15.1238H144.844V26.2858C144.872 27.1279 144.627 27.9563 144.145 28.646C143.663 29.2891 143.006 29.7772 142.253 30.0509C141.374 30.3851 140.441 30.5541 139.501 30.5497ZM139.564 23.7148C140.009 23.7276 140.447 23.5972 140.814 23.3425C141.171 23.0721 141.443 22.7038 141.596 22.2818C141.793 21.7471 141.888 21.1799 141.876 20.61C141.888 20.036 141.795 19.4647 141.603 18.9241C141.448 18.4874 141.175 18.1029 140.814 17.8142C140.452 17.5469 140.012 17.4085 139.564 17.4208C139.106 17.4055 138.657 17.5494 138.293 17.8283C137.932 18.1254 137.663 18.5203 137.517 18.9662C137.333 19.4988 137.243 20.06 137.252 20.624C137.241 21.1882 137.33 21.7498 137.517 22.2818C137.671 22.6982 137.937 23.0632 138.286 23.3355C138.659 23.5985 139.108 23.7316 139.564 23.7148Z" fill="white"/>
<path id="Vector_9" d="M152.31 26.3912C151.295 26.4177 150.29 26.1754 149.397 25.6887C148.591 25.235 147.937 24.5504 147.519 23.7219C147.061 22.7806 146.835 21.7419 146.862 20.6943C146.838 19.6582 147.063 18.6316 147.519 17.7018C147.932 16.8655 148.577 16.1676 149.376 15.6928C150.227 15.2083 151.193 14.9654 152.17 14.9904C152.861 14.9856 153.546 15.1045 154.196 15.3416C154.813 15.5687 155.375 15.9255 155.844 16.3882C156.331 16.8869 156.705 17.4861 156.94 18.1444C157.217 18.9334 157.35 19.7664 157.331 20.603V21.4459H148.063V19.5493H154.475C154.482 19.1399 154.384 18.7356 154.189 18.3762C154.009 18.0359 153.738 17.7534 153.406 17.5613C153.051 17.3596 152.648 17.2577 152.24 17.2663C151.808 17.2572 151.383 17.3691 151.011 17.5894C150.655 17.7924 150.36 18.0886 150.159 18.4464C149.957 18.8092 149.851 19.2179 149.851 19.6336V21.4389C149.84 21.9244 149.943 22.4058 150.152 22.8438C150.343 23.2306 150.644 23.5511 151.018 23.764C151.421 23.9888 151.877 24.1004 152.338 24.0871C152.653 24.0934 152.967 24.0459 153.267 23.9466C153.528 23.8545 153.767 23.7058 153.965 23.5111C154.169 23.3164 154.325 23.0756 154.419 22.8087L157.213 22.9983C157.115 23.6522 156.85 24.2694 156.444 24.7896C155.97 25.3227 155.376 25.7345 154.712 25.9908C153.944 26.2779 153.129 26.4138 152.31 26.3912Z" fill="white"/>
<path id="Vector_10" d="M162.388 19.7881V26.1734H159.343V15.1238H162.248V17.0767H162.374C162.607 16.4451 163.038 15.9074 163.603 15.5453C164.229 15.149 164.959 14.9507 165.698 14.9763C166.395 14.9598 167.083 15.1347 167.689 15.4821C168.262 15.8204 168.724 16.3213 169.016 16.9221C169.347 17.6111 169.51 18.3698 169.491 19.1348V26.1594H166.439V19.6687C166.478 19.0942 166.293 18.527 165.922 18.0882C165.734 17.8997 165.507 17.7549 165.257 17.6639C165.007 17.5729 164.741 17.5379 164.476 17.5613C164.096 17.5545 163.721 17.6464 163.387 17.8283C163.085 18.0129 162.842 18.2812 162.688 18.601C162.499 18.9684 162.396 19.3745 162.388 19.7881Z" fill="white"/>
<path id="Vector_11" d="M177.718 15.1238V17.4279H171.111V15.1238H177.718ZM172.599 12.4756H175.651V22.7806C175.639 23.0077 175.682 23.2343 175.777 23.4409C175.855 23.5888 175.984 23.7034 176.14 23.764C176.316 23.8421 176.506 23.8828 176.698 23.8834C176.844 23.8857 176.989 23.874 177.131 23.8483L177.46 23.7851L177.935 26.0681C177.781 26.1172 177.571 26.1734 177.292 26.2366C176.961 26.3078 176.625 26.3478 176.286 26.3561C175.63 26.3975 174.973 26.2969 174.359 26.061C173.829 25.8568 173.379 25.4876 173.074 25.0074C172.747 24.4669 172.589 23.8406 172.62 23.2091L172.599 12.4756Z" fill="white"/>
<path id="Vector_12" d="M85.4298 52.0307H80.2336V37.2792H85.4717C86.7938 37.245 88.103 37.547 89.2781 38.1573C90.3285 38.7367 91.1841 39.6169 91.7365 40.6861C92.3369 41.9125 92.6317 43.2674 92.5956 44.6339C92.6328 46.0028 92.338 47.3602 91.7365 48.5887C91.1855 49.6672 90.3238 50.5534 89.2641 51.1316C88.0826 51.7537 86.7631 52.0631 85.4298 52.0307ZM83.3346 49.3614H85.2971C86.0987 49.3856 86.8942 49.2145 87.6159 48.8626C88.2418 48.5278 88.7348 47.9873 89.0127 47.3313C89.3616 46.4818 89.5236 45.5664 89.4876 44.6479C89.5231 43.7341 89.3611 42.8234 89.0127 41.9786C88.7369 41.323 88.2431 40.7841 87.6159 40.4543C86.8968 40.1027 86.1031 39.9339 85.3041 39.9626H83.3346V49.3614Z" fill="white"/>
<path id="Vector_13" d="M96.3809 39.5481C96.1661 39.5536 95.9524 39.516 95.7522 39.4377C95.5519 39.3593 95.3692 39.2416 95.2146 39.0915C95.0631 38.9533 94.9421 38.7846 94.8593 38.5965C94.7764 38.4084 94.7336 38.2049 94.7336 37.9992C94.7336 37.7935 94.7764 37.59 94.8593 37.4019C94.9421 37.2138 95.0631 37.0452 95.2146 36.9069C95.529 36.607 95.9477 36.4431 96.3809 36.4503C96.8122 36.4427 97.2289 36.6068 97.5403 36.9069C97.6918 37.0452 97.8128 37.2138 97.8956 37.4019C97.9785 37.59 98.0213 37.7935 98.0213 37.9992C98.0213 38.2049 97.9785 38.4084 97.8956 38.5965C97.8128 38.7846 97.6918 38.9533 97.5403 39.0915C97.387 39.2414 97.2055 39.359 97.0064 39.4374C96.8073 39.5158 96.5947 39.5534 96.3809 39.5481ZM94.8514 52.0307V40.9741H97.8965V52.0307H94.8514Z" fill="white"/>
<path id="Vector_14" d="M105.258 56.4C104.396 56.4201 103.537 56.2845 102.723 55.9996C102.083 55.7716 101.507 55.3908 101.046 54.8897C100.641 54.4502 100.361 53.9091 100.236 53.3232L103.03 52.9439C103.12 53.1762 103.258 53.3868 103.435 53.5621C103.647 53.7671 103.899 53.9251 104.175 54.0257C104.536 54.1526 104.917 54.2121 105.3 54.2013C105.885 54.2258 106.462 54.0555 106.941 53.7166C107.171 53.5188 107.351 53.268 107.464 52.9854C107.577 52.7029 107.62 52.397 107.59 52.0939V50.0709H107.465C107.319 50.3958 107.116 50.691 106.864 50.9419C106.572 51.2456 106.22 51.4848 105.83 51.6444C105.352 51.8294 104.842 51.9177 104.329 51.9043C103.547 51.8959 102.781 51.6802 102.108 51.2791C101.405 50.8629 100.843 50.2437 100.495 49.5019C100.067 48.55 99.8634 47.5113 99.9009 46.4673C99.8663 45.388 100.074 44.3148 100.509 43.3273C100.855 42.5548 101.418 41.9006 102.129 41.4447C102.795 41.0287 103.566 40.8119 104.35 40.8196C104.881 40.8031 105.409 40.9088 105.893 41.1286C106.28 41.3138 106.623 41.5796 106.899 41.9084C107.136 42.1851 107.336 42.4921 107.493 42.8216H107.604V40.9741H110.629V52.1361C110.657 52.9783 110.412 53.8068 109.93 54.4963C109.445 55.1396 108.785 55.6276 108.03 55.9012C107.146 56.2416 106.205 56.4108 105.258 56.4ZM105.321 49.5651C105.765 49.5799 106.203 49.452 106.571 49.1998C106.929 48.9257 107.202 48.5556 107.36 48.1321C107.553 47.5992 107.646 47.0345 107.632 46.4673C107.644 45.8933 107.552 45.322 107.36 44.7814C107.207 44.3433 106.937 43.9566 106.578 43.6645C106.213 43.3972 105.771 43.2589 105.321 43.2711C104.865 43.2557 104.418 43.3997 104.057 43.6785C103.695 43.9712 103.424 44.3609 103.274 44.8025C103.09 45.3375 103 45.901 103.009 46.4673C102.996 47.0299 103.088 47.5898 103.281 48.1181C103.437 48.5369 103.708 48.9024 104.063 49.1717C104.431 49.4331 104.871 49.5708 105.321 49.5651Z" fill="white"/>
<path id="Vector_15" d="M114.596 39.5481C114.381 39.5536 114.167 39.516 113.967 39.4377C113.767 39.3593 113.584 39.2416 113.429 39.0915C113.278 38.9533 113.157 38.7846 113.074 38.5965C112.991 38.4084 112.948 38.2049 112.948 37.9992C112.948 37.7935 112.991 37.59 113.074 37.4019C113.157 37.2138 113.278 37.0452 113.429 36.9069C113.744 36.607 114.162 36.4431 114.596 36.4503C115.027 36.4427 115.444 36.6068 115.755 36.9069C115.906 37.0452 116.027 37.2138 116.11 37.4019C116.193 37.59 116.236 37.7935 116.236 37.9992C116.236 38.2049 116.193 38.4084 116.11 38.5965C116.027 38.7846 115.906 38.9533 115.755 39.0915C115.602 39.2414 115.42 39.359 115.221 39.4374C115.022 39.5158 114.809 39.5534 114.596 39.5481ZM113.066 52.0307V40.9741H116.111V52.0307H113.066Z" fill="white"/>
<path id="Vector_16" d="M124.387 40.9741V43.2782H117.773V40.9741H124.387ZM119.275 38.3259H122.32V48.6309C122.307 48.8588 122.353 49.0862 122.453 49.2912C122.528 49.4404 122.655 49.5575 122.809 49.6213C122.984 49.6836 123.168 49.7145 123.354 49.7126C123.497 49.7125 123.639 49.6984 123.78 49.6705L124.108 49.6143L124.59 51.8902C124.436 51.9394 124.22 51.9956 123.947 52.0588C123.614 52.1299 123.275 52.1699 122.935 52.1782C122.279 52.2186 121.621 52.1181 121.007 51.8832C120.481 51.6771 120.032 51.3113 119.722 50.8366C119.402 50.2937 119.247 49.6687 119.275 49.0383V38.3259Z" fill="white"/>
<path id="Vector_17" d="M129.507 52.2344C128.862 52.2473 128.222 52.1228 127.628 51.8692C127.1 51.632 126.65 51.2497 126.329 50.7663C125.996 50.2173 125.831 49.5823 125.854 48.9399C125.836 48.4048 125.952 47.8737 126.189 47.3945C126.404 46.9768 126.721 46.6213 127.111 46.3619C127.516 46.0971 127.962 45.9024 128.431 45.7859C128.941 45.6497 129.463 45.558 129.989 45.512C130.631 45.4417 131.141 45.3785 131.532 45.3223C131.832 45.2904 132.122 45.1972 132.384 45.0483C132.472 44.9911 132.542 44.9115 132.589 44.8176C132.636 44.7238 132.656 44.6192 132.65 44.5145V44.4723C132.662 44.2758 132.63 44.0789 132.557 43.8964C132.483 43.7139 132.369 43.5506 132.224 43.4187C131.884 43.1463 131.456 43.0111 131.022 43.0393C130.557 43.0173 130.097 43.1453 129.709 43.4046C129.401 43.6293 129.175 43.9504 129.067 44.3178L126.273 44.086C126.399 43.4425 126.687 42.8425 127.111 42.3439C127.553 41.8368 128.112 41.4462 128.738 41.2059C129.479 40.9269 130.266 40.791 131.057 40.8055C131.648 40.8021 132.238 40.8753 132.81 41.0233C133.347 41.1637 133.853 41.4017 134.305 41.7257C134.724 42.0151 135.068 42.4003 135.31 42.8497C135.577 43.3727 135.709 43.9548 135.695 44.5426V52.0307H132.803V50.4994H132.698C132.323 51.2187 131.685 51.7628 130.917 52.0167C130.463 52.168 129.986 52.2416 129.507 52.2344ZM130.38 50.1271C130.791 50.1336 131.198 50.0421 131.567 49.8602C131.89 49.6994 132.167 49.4575 132.37 49.1577C132.567 48.8451 132.669 48.4812 132.664 48.111V46.9028C132.545 46.9781 132.415 47.035 132.279 47.0714C132.096 47.129 131.909 47.1759 131.721 47.2119C131.518 47.254 131.309 47.2892 131.106 47.3173L130.547 47.4016C130.226 47.4445 129.911 47.5295 129.611 47.6544C129.367 47.7502 129.152 47.9103 128.99 48.1181C128.842 48.3217 128.763 48.5682 128.766 48.8205C128.757 49.0052 128.793 49.1893 128.873 49.3561C128.952 49.523 129.072 49.6673 129.22 49.7759C129.561 50.0117 129.967 50.1323 130.38 50.1201V50.1271Z" fill="white"/>
<path id="Vector_18" d="M141.079 37.2932V52.0448H138.034V37.2932H141.079Z" fill="white"/>
<path id="Vector_19" d="M148.266 52.0307V37.2792H154.049C155.034 37.2503 156.01 37.4675 156.891 37.9114C157.644 38.3132 158.265 38.9256 158.679 39.6746C159.104 40.4731 159.318 41.368 159.301 42.2736C159.32 43.1758 159.103 44.067 158.672 44.8587C158.252 45.6116 157.617 46.2207 156.85 46.6078C155.956 47.0516 154.968 47.2686 153.972 47.24H150.284V44.7533H153.469C153.981 44.7717 154.49 44.6631 154.95 44.4372C155.325 44.24 155.63 43.9308 155.823 43.5521C156.011 43.1513 156.109 42.7135 156.109 42.2701C156.109 41.8268 156.011 41.389 155.823 40.9882C155.624 40.6183 155.317 40.319 154.943 40.1312C154.479 39.9103 153.969 39.8043 153.455 39.8221H151.36V52.0307H148.266Z" fill="white"/>
<path id="Vector_20" d="M164.309 37.2932V52.0448H161.263V37.2932H164.309Z" fill="white"/>
<path id="Vector_21" d="M169.875 52.2344C169.23 52.2473 168.59 52.1228 167.996 51.8692C167.468 51.632 167.018 51.2497 166.697 50.7663C166.365 50.2173 166.2 49.5823 166.222 48.9399C166.205 48.4048 166.32 47.8737 166.557 47.3945C166.774 46.9782 167.091 46.6232 167.479 46.3619C167.883 46.0948 168.33 45.8999 168.799 45.7859C169.307 45.6496 169.826 45.558 170.35 45.512C170.992 45.4417 171.509 45.3785 171.9 45.3223C172.2 45.2893 172.489 45.1961 172.752 45.0483C172.838 44.9898 172.907 44.9097 172.952 44.816C172.998 44.7224 173.018 44.6184 173.011 44.5145V44.4723C173.023 44.2758 172.992 44.0789 172.918 43.8964C172.844 43.714 172.73 43.5506 172.585 43.4187C172.245 43.1463 171.817 43.0111 171.383 43.0393C170.918 43.0173 170.458 43.1453 170.07 43.4046C169.762 43.6293 169.536 43.9504 169.428 44.3178L166.634 44.086C166.76 43.441 167.051 42.8403 167.479 42.3439C167.92 41.8353 168.479 41.4444 169.107 41.2059C169.845 40.9254 170.629 40.7895 171.418 40.8055C172.01 40.8021 172.599 40.8753 173.171 41.0233C173.71 41.1636 174.219 41.4017 174.673 41.7257C175.091 42.018 175.438 42.4024 175.686 42.8497C175.948 43.3741 176.078 43.9556 176.063 44.5426V52.0307H173.206V50.4994H173.123C172.948 50.8428 172.711 51.1502 172.424 51.4055C172.112 51.6755 171.752 51.8829 171.363 52.0167C170.883 52.176 170.38 52.2496 169.875 52.2344ZM170.748 50.1271C171.159 50.1344 171.566 50.0429 171.935 49.8602C172.261 49.7004 172.54 49.4584 172.745 49.1577C172.943 48.8451 173.045 48.4812 173.039 48.111V46.9028C172.916 46.9763 172.785 47.033 172.648 47.0714C172.464 47.1298 172.278 47.1767 172.089 47.2119C171.886 47.254 171.684 47.2892 171.474 47.3173L170.916 47.4016C170.594 47.4445 170.279 47.5295 169.98 47.6544C169.735 47.7502 169.52 47.9103 169.358 48.1181C169.21 48.3217 169.132 48.5682 169.135 48.8205C169.125 49.0052 169.162 49.1893 169.241 49.3561C169.32 49.523 169.44 49.6673 169.589 49.7759C169.929 50.0109 170.335 50.1314 170.748 50.1201V50.1271Z" fill="white"/>
<path id="Vector_22" d="M184.276 40.9741V43.2782H177.655V40.9741H184.276ZM179.157 38.3259H182.209V48.6309C182.197 48.858 182.24 49.0845 182.335 49.2912C182.415 49.4391 182.543 49.5554 182.698 49.6213C182.87 49.6829 183.052 49.7138 183.236 49.7126C183.381 49.7125 183.526 49.6984 183.669 49.6705L183.997 49.6143L184.479 51.8902C184.325 51.9371 184.109 51.9933 183.829 52.0588C183.498 52.1304 183.162 52.1704 182.823 52.1782C182.167 52.2186 181.51 52.1181 180.896 51.8832C180.37 51.6771 179.921 51.3113 179.611 50.8366C179.288 50.2945 179.13 49.6694 179.157 49.0383V38.3259Z" fill="white"/>
<path id="Vector_23" d="M192.168 40.9741V43.2782H185.387V40.9741H192.168ZM186.937 52.0307V40.1803C186.91 39.4849 187.072 38.7952 187.405 38.1854C187.705 37.6686 188.153 37.2548 188.69 36.9982C189.269 36.7269 189.902 36.5924 190.541 36.6049C190.972 36.6018 191.402 36.6371 191.826 36.7102C192.119 36.7566 192.408 36.8223 192.692 36.9069L192.154 39.2039L191.714 39.0986C191.537 39.0645 191.357 39.048 191.177 39.0494C191.008 39.031 190.837 39.0491 190.675 39.1024C190.514 39.1557 190.366 39.243 190.241 39.3585C190.051 39.6101 189.957 39.9214 189.975 40.2365V52.0307H186.937Z" fill="white"/>
<path id="Vector_24" d="M198.608 52.2415C197.601 52.2731 196.604 52.0304 195.723 51.539C194.919 51.0724 194.268 50.3788 193.851 49.544C193.419 48.6076 193.195 47.5876 193.195 46.5551C193.195 45.5226 193.419 44.5025 193.851 43.5661C194.27 42.7309 194.92 42.0356 195.723 41.5642C196.611 41.0935 197.6 40.8476 198.604 40.8476C199.608 40.8476 200.597 41.0935 201.485 41.5642C202.286 42.0318 202.936 42.7221 203.357 43.5521C203.789 44.4885 204.013 45.5085 204.013 46.541C204.013 47.5735 203.789 48.5936 203.357 49.53C202.94 50.3647 202.289 51.0583 201.485 51.5249C200.608 52.02 199.613 52.2676 198.608 52.2415ZM198.608 49.8672C199.068 49.884 199.518 49.7289 199.872 49.4316C200.229 49.1127 200.495 48.7026 200.64 48.2445C200.984 47.1233 200.984 45.9237 200.64 44.8025C200.49 44.3447 200.225 43.9335 199.872 43.6083C199.517 43.3139 199.068 43.1592 198.608 43.1728C198.141 43.1572 197.685 43.3119 197.323 43.6083C196.959 43.9276 196.689 44.3404 196.54 44.8025C196.196 45.9237 196.196 47.1233 196.54 48.2445C196.685 48.7062 196.956 49.1176 197.323 49.4316C197.686 49.7367 198.149 49.8945 198.622 49.8742L198.608 49.8672Z" fill="white"/>
<path id="Vector_25" d="M206.032 52.0307V40.9741H208.986V42.9059H209.098C209.253 42.2871 209.61 41.7383 210.11 41.3464C210.58 40.9951 211.152 40.8099 211.738 40.8196C211.903 40.8097 212.069 40.8097 212.234 40.8196C212.389 40.835 212.543 40.8608 212.695 40.8968V43.6153C212.5 43.5634 212.301 43.5258 212.101 43.503C211.87 43.4702 211.636 43.4538 211.403 43.4538C210.985 43.4481 210.572 43.5471 210.201 43.7418C209.859 43.9314 209.574 44.2105 209.377 44.5496C209.169 44.9148 209.063 45.3298 209.07 45.7508V52.0026L206.032 52.0307Z" fill="white"/>
<path id="Vector_26" d="M214.238 52.0307V40.9741H217.143V42.9269H217.269C217.477 42.3059 217.879 41.7689 218.415 41.3956C218.978 41.0098 219.647 40.8131 220.328 40.8336C221.013 40.8144 221.687 41.0109 222.256 41.3956C222.778 41.764 223.154 42.3064 223.317 42.9269H223.429C223.651 42.2931 224.083 41.7551 224.651 41.4026C225.28 41.0113 226.008 40.8135 226.747 40.8336C227.208 40.8145 227.669 40.8921 228.099 41.0614C228.53 41.2307 228.921 41.488 229.247 41.817C229.588 42.1958 229.849 42.64 230.014 43.1228C230.18 43.6057 230.247 44.1173 230.211 44.6269V52.0307H227.173V45.2029C227.194 44.9473 227.161 44.6901 227.077 44.448C226.993 44.206 226.859 43.9845 226.684 43.798C226.522 43.6438 226.331 43.5235 226.122 43.444C225.914 43.3644 225.692 43.3271 225.469 43.3343C225.226 43.3212 224.984 43.3623 224.759 43.4546C224.535 43.5469 224.333 43.6882 224.17 43.8682C223.846 44.2615 223.681 44.7632 223.709 45.2731V52.0237H220.754V45.1326C220.766 44.8973 220.731 44.662 220.652 44.4402C220.573 44.2184 220.451 44.0145 220.293 43.8401C220.136 43.6781 219.946 43.5513 219.737 43.4678C219.528 43.3843 219.303 43.346 219.078 43.3554C218.757 43.3495 218.44 43.44 218.17 43.6153C217.896 43.7853 217.673 44.0284 217.528 44.3178C217.362 44.6485 217.28 45.0153 217.29 45.3855V52.0237L214.238 52.0307Z" fill="white"/>
<path id="Vector_27" d="M241.749 44.1281L238.955 44.3037C238.908 44.0638 238.802 43.8394 238.648 43.6504C238.479 43.4473 238.267 43.2862 238.026 43.1798C237.688 43.0473 237.326 42.9901 236.965 43.0119C236.603 43.0337 236.25 43.1341 235.931 43.3062C235.786 43.3818 235.665 43.4957 235.58 43.6356C235.495 43.7755 235.45 43.9361 235.449 44.1C235.448 44.2278 235.477 44.354 235.531 44.4695C235.585 44.5849 235.665 44.6867 235.763 44.7673C236.085 44.9979 236.455 45.1494 236.846 45.2099L238.829 45.6103C239.707 45.7416 240.533 46.1107 241.218 46.678C241.481 46.9218 241.687 47.2203 241.824 47.5528C241.96 47.8852 242.022 48.2435 242.007 48.6027C242.02 49.2909 241.798 49.9626 241.378 50.5064C240.921 51.0767 240.324 51.5173 239.646 51.7849C238.842 52.1046 237.983 52.2599 237.118 52.2414C235.888 52.3102 234.667 51.991 233.626 51.3283C233.211 51.0449 232.861 50.6749 232.601 50.2434C232.34 49.8118 232.175 49.3289 232.117 48.8275L235.114 48.666C235.148 48.8719 235.224 49.0686 235.337 49.2438C235.45 49.419 235.597 49.569 235.77 49.6845C236.173 49.9323 236.639 50.0545 237.111 50.0357C237.561 50.0573 238.007 49.9475 238.396 49.7196C238.543 49.6416 238.668 49.5258 238.756 49.3839C238.844 49.242 238.894 49.0791 238.899 48.9118C238.898 48.7757 238.866 48.6416 238.805 48.5199C238.745 48.3981 238.657 48.2919 238.55 48.2094C238.23 47.9964 237.868 47.855 237.488 47.7949L235.582 47.4156C234.692 47.2865 233.861 46.8954 233.193 46.2917C232.932 46.0235 232.728 45.7045 232.593 45.3542C232.459 45.0039 232.397 44.6298 232.411 44.2546C232.393 43.5963 232.595 42.9511 232.983 42.4211C233.406 41.8818 233.97 41.4708 234.611 41.234C235.395 40.9439 236.227 40.8033 237.062 40.8196C238.222 40.754 239.373 41.0642 240.345 41.7046C240.736 41.9859 241.063 42.3473 241.305 42.765C241.547 43.1828 241.698 43.6473 241.749 44.1281Z" fill="white"/>
<path id="Subtract" fill-rule="evenodd" clip-rule="evenodd" d="M66.6146 33.5C66.6146 52.0015 51.7024 67 33.3073 67C14.9122 67 0 52.0015 0 33.5C0 14.9985 14.9122 0 33.3073 0C51.7024 0 66.6146 14.9985 66.6146 33.5ZM46.2768 21.8393C48.0595 22.6749 49.5635 24.0119 50.607 25.6887C51.6631 27.4475 52.2008 29.4719 52.1574 31.5261C52.206 33.5813 51.6731 35.6081 50.6209 37.3705C49.5753 39.0455 48.072 40.382 46.2908 41.22C44.286 42.155 42.0958 42.6187 39.8863 42.5757H35.6959V49.1296H29.487V42.5757H18.9689V20.4835H25.1847V37.5883H39.6209C41.2831 37.6703 42.9107 37.0926 44.1536 35.9797C44.7374 35.4024 45.1919 34.7066 45.487 33.9386C45.7821 33.1706 45.9109 32.3481 45.8647 31.5261C45.9103 30.7052 45.7812 29.8839 45.4862 29.1172C45.1911 28.3504 44.7368 27.6557 44.1536 27.0796C42.9107 25.9666 41.2831 25.3889 39.6209 25.471H35.6959V33.7178H29.487V20.4835H39.8724C42.0818 20.4406 44.272 20.9042 46.2768 21.8393Z" fill="white"/>
</g>
</g>
</g>
<defs>
<clipPath id="clip0_21_2">
<rect width="242" height="67" fill="white"/>
</clipPath>
</defs>
</svg>
