<svg width="10" height="10" viewBox="0 0 10 10" fill="none" xmlns="http://www.w3.org/2000/svg">
<g id="up-arrow 1" clip-path="url(#clip0_30_37)">
<g id="Group">
<path id="Vector" d="M3.14619 9.90008L7.8156 5.23036C7.88239 5.16364 7.91583 5.08688 7.91583 5.00005C7.91583 4.91322 7.88239 4.83633 7.8156 4.76957L3.14619 0.100235C3.07929 0.0333414 3.00254 -2.14767e-07 2.91567 -2.18564e-07C2.82885 -2.22359e-07 2.75198 0.0334467 2.68523 0.100235L2.18437 0.601132C2.11758 0.667921 2.0842 0.744782 2.0842 0.83161C2.0842 0.918439 2.11758 0.9953 2.18437 1.06209L6.12226 5.00005L2.18412 8.93816C2.11733 9.00491 2.08417 9.08181 2.08417 9.16849C2.08417 9.25546 2.11754 9.33232 2.18412 9.39908L2.6852 9.90005C2.75195 9.9668 2.82885 9.99997 2.91564 9.99997C3.00254 10 3.0794 9.96683 3.14619 9.90008Z" fill="white"/>
</g>
</g>
<defs>
<clipPath id="clip0_30_37">
<rect width="10" height="10" fill="white" transform="translate(10) rotate(90)"/>
</clipPath>
</defs>
</svg>
